<svg width="66" height="28" viewBox="0 0 66 28" fill="none" xmlns="http://www.w3.org/2000/svg">
<path fill-rule="evenodd" clip-rule="evenodd" d="M1.7413 0.277916H7.9944C8.38812 0.277916 9.17554 0.486352 9.17554 1.3201V3.26551C9.1987 3.33499 9.28671 3.43226 9.45346 3.26551C9.47762 3.24134 9.5186 3.1789 9.57865 3.08736C10.0366 2.38935 11.6042 0 15.2897 0C18.6247 0 20.6164 2.4086 21.1954 3.6129C21.4502 4.0761 21.9597 5.33598 21.9597 6.66998C21.9597 8.00397 21.5428 9.1249 21.3344 9.51861C21.1491 9.91232 20.6257 10.8526 20.0143 11.464C19.4028 12.0754 18.2773 12.6915 17.7909 12.9231C17.4204 13.0852 16.443 13.4094 15.4981 13.4094C14.5532 13.4094 14.2475 13.7568 14.2475 13.7568C14.0622 14.0347 13.8028 14.7017 14.2475 15.1464C14.6922 15.5911 15.0118 15.5633 15.0118 15.5633H21.4733V27.9305H14.8728C13.599 27.6989 11.0515 26.5687 11.0515 23.9007V10.9082C10.982 10.6303 10.718 10.0744 10.2177 10.0744C9.59242 10.0744 9.17554 10.5608 9.17554 10.9082V26.263C9.22186 26.8189 9.02269 27.9305 7.85545 27.9305H1.94974C1.5097 27.9074 0.629639 27.6109 0.629639 26.6104V1.3201C0.652798 0.972705 0.907554 0.277916 1.7413 0.277916ZM6.88279 5.41935C6.11535 5.41935 5.49321 6.04148 5.49321 6.80893C5.49321 7.57637 6.11534 8.19851 6.88279 8.19851H15.2203C15.9877 8.19851 16.6098 7.57637 16.6098 6.80893C16.6098 6.04148 15.9877 5.41935 15.2203 5.41935H6.88279Z" fill="#E06251"/>
<circle cx="28.6296" cy="4.79404" r="4.79404" fill="#A7D8EF"/>
<path fill-rule="evenodd" clip-rule="evenodd" d="M34.049 0.347351L35.2301 10.4913H26.8232C25.5726 10.4913 23.0018 11.9086 23.0018 14.2431V24.3176C23.2566 25.545 24.3775 28 26.8232 28H32.2425C33.3542 28 35.8554 26.7493 35.8554 24.3176V16.258L37.245 28H45.4435L42.4559 1.80641C42.3864 1.32006 41.7333 0.347351 41.0663 0.347351H34.049ZM27.9349 12.0893C27.2058 12.0893 26.6148 12.6803 26.6148 13.4094C26.6148 14.1385 27.2058 14.7295 27.9349 14.7295H35.647L35.4386 12.0893H27.9349Z" fill="#DE3123"/>
<path d="M46.3467 0.347351V4.65504H57.3938C58.5055 4.65504 59.015 5.76671 59.1308 6.32254L56.0737 23.1364C56.0737 23.3217 55.9487 23.6923 55.4484 23.6923C54.9482 23.6923 54.8231 23.3217 54.8231 23.1364V8.40691C54.8231 7.01733 53.4798 6.43834 52.8082 6.32254H46.3467V28H61.4236C64.703 28 65.7545 25.1282 65.8703 23.6923V4.58556C65.8703 1.47291 62.9058 0.463149 61.4236 0.347351H46.3467Z" fill="#E49290"/>
</svg>
